PathFileType	4	(X/Y/Z)	C:/Users/beibeiliu/ov580/test_trc/User3\sequence.8_training_dense_right.trc
DataRate	CameraRate	NumFrames	NumMarkers	Units	OrigDataRate	OrigDataStartFrame	OrigNumFrames
120	120	12	19	mm	120	118	235
Frame#	Time	ThumbCMC			ThumbMCP			ThumbIP			ThumbTip			IndexMCP			IndexPIP			IndexTip			MiddleMCP			MiddlePIP			MiddleTip			RingMCP			RingPIP			RingTip			PinkyMCP			PinkyPIP			PinkyTip			BackHand1			BackHand2			BackHand3	
		X0	Y0	Z0	X1	Y1	Z1	X2	Y2	Z2	X3	Y3	Z3	X4	Y4	Z4	X5	Y5	Z5	X6	Y6	Z6	X7	Y7	Z7	X8	Y8	Z8	X9	Y9	Z9	X10	Y10	Z10	X11	Y11	Z11	X12	Y12	Z12	X13	Y13	Z13	X14	Y14	Z14	X15	Y15	Z15	X16	Y16	Z16	X17	Y17	Z17	X18	Y18	Z18	
117	0.975	136.18	7.32403	45.0458	113.757	7.49247	19.2798	111.326	4.15218	-11.1129	116.314	-5.44625	-36.5373	147.737	44.2115	-22.9415	138.9	50.1358	-47.5319	132.474	49.6612	-74.054	155.971	18.654	-36.2997	135.874	-1.79473	-47.5264	132.938	-21.772	-10.8147	168.532	-3.10773	-32.9069	148.459	-24.6882	-34.151	144.15	-27.2451	0.621496	181.099	-17.0399	-28.7519	161.731	-32.3804	-31.8852	151.631	-35.4215	-0.217566	191.922	11.0955	18.614	197.795	-2.67234	49.777	168.593	24.4784	39.4487	
118	0.983333	130.54	7.0659	49.2125	112.976	5.58438	17.7884	104.188	1.30458	-8.81263	113.168	-7.63206	-33.6087	139.821	38.1469	-20.7022	127.698	40.8879	-47.7378	115.288	33.8076	-72.9151	151.012	16.9172	-32.9006	131.083	-6.23372	-46.2017	131.93	-26.2772	-10.86	162.973	-5.6817	-34.2103	144.846	-30.1689	-30.0674	140.178	-29.5793	1.3512	179.243	-16.1381	-23.8788	157.485	-37.8963	-26.4727	150.274	-38.7432	-0.765823	190.214	11.2967	20.5798	194.776	0.101482	49.1528	165.631	25.3582	39.7373	
119	0.991667	128.127	3.6042	48.2401	108.551	1.01533	20.5121	103.356	-4.01444	-6.83913	109.128	-14.34	-30.0212	130.848	29.6009	-21.6226	118.053	23.1333	-49.8172	104.301	10.7144	-68.7739	144.586	11.5323	-36.5332	126.542	-14.6488	-43.7788	129.864	-31.001	-10.726	157.964	-6.36625	-29.929	142.102	-34.8707	-28.1403	138.825	-34.2555	1.03608	177.839	-20.4792	-23.3106	154.023	-39.6463	-24.4974	148.634	-41.7282	3.55177	183.896	10.0582	20.7898	189.878	4.7581	47.1403	158.026	23.1494	40.5657	
120	1	125.118	1.1801	50.4499	104.576	-2.51997	20.035	100.896	-10.3921	-7.25506	106.207	-20.7153	-28.687	124.51	18.8026	-27.5974	108.176	10.2747	-47.7402	97.6329	-6.82792	-63.7561	137.36	5.46517	-36.1958	124.395	-20.96	-43.5556	126.648	-36.4162	-5.74021	154.7	-12.7659	-29.8457	140.587	-39.9499	-28.9572	139.906	-40.7385	4.44989	173.881	-25.0434	-23.0558	154.714	-45.0678	-25.0896	147.715	-46.611	6.56237	179.174	9.64601	15.7981	187.83	4.11921	49.87	156.827	22.102	39.4444	
121	1.00833	123.81	-1.06334	49.7637	103.487	-8.85824	26.599	98.5175	-15.3834	-7.22364	103.085	-27.0805	-27.6505	123.025	13.4379	-24.9037	102.227	2.04697	-47.8896	91.079	-16.9631	-63.678	140.231	-1.49552	-34.1035	120.385	-27.4263	-41.9013	127.566	-39.7752	-1.53348	154.269	-19.7182	-30.4007	138.273	-46.4743	-24.3988	135.645	-41.7416	8.0854	169.139	-30.2353	-24.0556	150.157	-48.7852	-23.5609	146.827	-51.6247	8.65049	179.001	5.41112	15.2871	188.039	-1.12908	45.297	157.011	15.9579	36.0444	
122	1.01667	121.549	-2.5031	50.1976	100.582	-11.3856	26.0541	95.8472	-19.2996	-3.5755	104.974	-30.2367	-25.6482	117.761	11.9532	-25.8241	101.08	1.67676	-48.7003	88.9613	-12.4785	-61.5065	135.755	-3.83131	-32.8667	119.661	-31.8968	-40.0759	122.723	-41.9777	0.132756	150.24	-23.9453	-30.7211	133.913	-49.588	-24.0956	135.992	-46.0386	9.72006	162.666	-32.0969	-23.9345	148.126	-51.4772	-22.9404	147.881	-53.774	10.9687	179.177	2.63278	13.5181	188.542	-3.73008	47.78	152.945	16.7142	41.1389	
123	1.025	121.274	-4.70983	53.8232	98.8759	-12.0021	25.0178	94.749	-20.3662	0.172452	97.5381	-33.6105	-25.9682	116.798	13.1767	-23.4265	101.077	6.89684	-45.7929	88.2971	-10.8321	-67.7385	133.265	-7.55856	-33.3136	114.895	-35.2036	-36.0668	119.603	-43.102	1.29255	146.037	-24.9671	-31.1066	130.601	-50.3015	-23.5621	133.574	-49.4368	8.18851	166.202	-34.1588	-22.7585	146.252	-56.987	-18.4233	144.707	-57.2685	11.3339	178.271	0.239668	15.3065	186.387	-2.54978	47.5131	151.615	13.7251	40.9177	
124	1.03333	121.665	-6.4884	52.3462	99.8316	-12.9381	29.4736	91.2759	-22.1444	-0.188807	98.7674	-33.613	-22.0897	114.994	14.6019	-23.7813	101.131	10.1563	-46.1722	87.3408	-0.00966123	-66.4181	126.047	-6.86648	-33.5321	114.34	-34.3441	-37.8209	120.46	-44.7586	2.47527	145.918	-25.5905	-28.9105	131.1	-51.7256	-24.652	129.898	-49.4842	9.8675	162.32	-36.1338	-24.5243	144.719	-56.6093	-18.338	141.941	-55.9767	9.26968	172.627	0.262103	15.8161	181.235	-1.43294	48.9642	147.928	14.3043	41.3256	
125	1.04167	119.537	-5.32114	54.7449	95.8559	-12.9386	28.3784	88.8475	-21.8045	2.33801	94.2681	-32.3627	-23.0069	115.221	17.2541	-18.7048	100.83	17.7118	-42.4916	88.658	9.95406	-68.6226	128.41	-5.93362	-32.0508	106.753	-34.1761	-34.4269	119.095	-42.7772	3.87765	140.131	-22.2076	-28.0254	128.405	-51.5835	-22.2672	127.181	-49.9141	7.80714	158.542	-31.2473	-19.9051	142.678	-52.1537	-22.5761	138.851	-56.2768	7.05741	174.179	2.11628	15.1416	181.29	-2.74422	46.2448	146.415	14.4305	40.5159	
126	1.05	117.747	-4.55523	53.7002	95.131	-11.0253	30.9174	84.4426	-18.4085	2.17074	90.697	-29.8304	-18.7493	112.63	21.7946	-16.7048	102.979	23.1241	-45.1573	94.6661	20.5416	-68.4023	124.611	-3.57734	-33.7414	107.117	-31.3124	-35.8671	116.106	-41.9152	-0.100846	139.788	-22.0479	-29.9514	124.527	-46.5968	-24.8032	128.316	-48.4457	9.79779	157.838	-30.5448	-21.3864	141.388	-53.5224	-21.178	135.507	-54.5623	8.16011	168.793	5.01469	16.3006	181.725	-1.63443	46.4024	145.761	17.826	40.138	
127	1.05833	115.273	-1.83939	54.7704	95.6147	-8.03883	29.2244	82.8812	-15.7724	4.95616	87.6578	-25.8934	-19.7548	115.061	23.5684	-17.9885	100.348	31.2256	-41.9549	92.1853	31.8206	-66.8921	120.678	1.68172	-30.6734	104.886	-28.3493	-35.4513	112.01	-38.3668	2.08441	134.537	-16.7103	-27.5736	121.078	-46.3183	-22.5037	125.873	-46.2412	8.21772	152.806	-30.5472	-25.5692	134.582	-51.0012	-18.8343	133.742	-53.6907	10.1848	167.966	3.38051	15.227	176.511	-1.79915	50.3078	146.342	14.5038	43.35	
128	1.06667	111.132	-0.461262	58.6648	91.8073	-6.59691	34.3766	81.0608	-12.4715	4.93998	83.9247	-22.6158	-22.5022	110.974	28.8721	-15.153	103.289	33.7406	-37.0653	94.139	37.8619	-61.4162	120.428	4.87699	-27.522	98.8963	-22.8316	-35.7052	108.067	-35.3323	2.24981	130.587	-14.0931	-28.3447	116.498	-42.0387	-22.8266	121.172	-40.1865	10.4052	150.432	-28.807	-24.7513	131.561	-45.8831	-22.2539	128.964	-48.443	6.11186	164.757	4.57028	15.279	177.353	-0.0971687	47.2313	143.951	15.6361	45.0968	
